<svg width="120" height="32" viewBox="0 0 120 32" fill="none" xmlns="http://www.w3.org/2000/svg">
<g clip-path="url(#clip0_264_122)">
<path opacity="0.72" fill-rule="evenodd" clip-rule="evenodd" d="M0.24939 3.52249L2.34726 2.61092C10.1461 -0.777858 19.0052 -0.777858 26.804 2.61092L28.9019 3.52249V17.6089C28.9019 25.5071 22.4878 31.9099 14.5756 31.9099C6.66346 31.9099 0.24939 25.5071 0.24939 17.6089V3.52249ZM4.7884 6.50152V12.666C5.27245 12.5491 5.7478 12.3946 6.21001 12.2034C7.38025 11.7196 8.44354 11.0104 9.3392 10.1163C10.2349 9.2222 10.9453 8.1608 11.4301 6.99263C11.733 6.26257 11.9441 5.49973 12.0598 4.72159C9.58391 4.96085 7.13424 5.55418 4.7884 6.50152ZM4.78922 17.7379C5.27299 17.8548 5.74805 18.0092 6.21001 18.2002C7.38025 18.6841 8.44354 19.3933 9.3392 20.2874C10.2349 21.1815 10.9453 22.2429 11.4301 23.4111C11.9128 24.5744 12.1622 25.821 12.1643 27.0801C7.96496 26.018 4.84763 22.2461 4.78922 17.7379ZM14.4338 19.413C13.891 18.5742 13.2595 17.793 12.5488 17.0835C11.838 16.374 11.0555 15.7437 10.2151 15.2018C11.0555 14.66 11.838 14.0297 12.5488 13.3202C13.2595 12.6107 13.891 11.8295 14.4338 10.9907C14.9766 11.8295 15.608 12.6107 16.3188 13.3202C17.0296 14.0297 17.8121 14.66 18.6524 15.2018C17.8121 15.7437 17.0296 16.374 16.3188 17.0835C15.608 17.793 14.9766 18.5742 14.4338 19.413ZM16.7033 27.1473C21.0653 26.1821 24.3325 22.3114 24.3627 17.6737C23.7806 17.7959 23.2097 17.9719 22.6576 18.2002C21.4873 18.6841 20.424 19.3933 19.5284 20.2874C18.6327 21.1815 17.9222 22.2429 17.4375 23.4111C16.9528 24.5792 16.7033 25.8313 16.7033 27.0956V27.1473ZM22.6576 12.2034C23.2098 12.4318 23.7807 12.6078 24.3629 12.7301V6.50152C21.9262 5.51751 19.3776 4.91546 16.8039 4.69539C16.9188 5.48262 17.1311 6.25439 17.4375 6.99263C17.9222 8.1608 18.6327 9.2222 19.5284 10.1163C20.424 11.0104 21.4873 11.7196 22.6576 12.2034Z" fill="black"/>
<path opacity="0.4" fill-rule="evenodd" clip-rule="evenodd" d="M62.9864 29.0996C62.3055 29.0996 61.6928 28.9364 61.1481 28.6102C60.6034 28.2748 60.1722 27.8217 59.8545 27.2508C59.5458 26.6708 59.3915 26.0184 59.3915 25.2934C59.3915 24.5594 59.5458 23.9069 59.8545 23.336C60.1722 22.7651 60.5989 22.3166 61.1345 21.9903C61.6791 21.6551 62.2964 21.4874 62.9864 21.4874C63.6128 21.4874 64.1711 21.6233 64.6613 21.8952C65.0627 22.1177 65.394 22.4041 65.6553 22.7542V18.6465H66.6766V28.9364H65.6553V27.7491C65.4108 28.1351 65.084 28.4448 64.6749 28.6782C64.1756 28.9591 63.6128 29.0996 62.9864 29.0996ZM63.0408 28.08C63.5311 28.08 63.9713 27.9576 64.3617 27.713C64.7611 27.4683 65.0743 27.1375 65.3013 26.7207C65.5373 26.2948 65.6553 25.819 65.6553 25.2934C65.6553 24.7678 65.5373 24.2966 65.3013 23.8798C65.0743 23.4538 64.7611 23.1186 64.3617 22.8739C63.9713 22.6292 63.5311 22.5069 63.0408 22.5069C62.5597 22.5069 62.124 22.6292 61.7336 22.8739C61.3433 23.1186 61.0346 23.4493 60.8077 23.8662C60.5898 24.283 60.4808 24.7588 60.4808 25.2934C60.4808 25.819 60.5898 26.2948 60.8077 26.7207C61.0346 27.1375 61.3387 27.4683 61.72 27.713C62.1103 27.9576 62.5506 28.08 63.0408 28.08Z" fill="black"/>
<path opacity="0.4" fill-rule="evenodd" clip-rule="evenodd" d="M69.8358 28.6104C70.3895 28.9366 71.0068 29.0997 71.6877 29.0997C72.187 29.0997 72.6409 29.0181 73.0494 28.855C73.467 28.6828 73.8255 28.4608 74.1251 28.1889C74.4247 27.9079 74.6471 27.6044 74.7924 27.2781L73.9209 26.816C73.6939 27.1966 73.3989 27.5137 73.0358 27.7675C72.6726 28.0212 72.2233 28.1481 71.6877 28.1481C71.2247 28.1481 70.789 28.0303 70.3804 27.7947C69.981 27.5591 69.6633 27.2283 69.4273 26.8024C69.244 26.451 69.1495 26.0522 69.1438 25.6062H74.8877C74.9058 25.4884 74.9194 25.3751 74.9285 25.2664C74.9376 25.1486 74.9421 25.0444 74.9421 24.9537C74.9421 24.5188 74.865 24.0974 74.7107 23.6896C74.5563 23.2728 74.3339 22.9012 74.0434 22.575C73.7529 22.2397 73.3989 21.9769 72.9813 21.7866C72.5728 21.5872 72.1053 21.4875 71.5787 21.4875C70.916 21.4875 70.3169 21.6507 69.7813 21.9769C69.2548 22.3031 68.8372 22.7517 68.5285 23.3226C68.2199 23.8844 68.0656 24.5324 68.0656 25.2664C68.0656 26.0004 68.2244 26.6574 68.5421 27.2374C68.8599 27.8173 69.2911 28.2749 69.8358 28.6104ZM69.16 24.6547C69.1938 24.3333 69.2783 24.0434 69.4136 23.7848C69.6315 23.3588 69.9311 23.0281 70.3124 22.7925C70.7027 22.5569 71.1248 22.4391 71.5787 22.4391C72.0326 22.4391 72.4412 22.5569 72.8043 22.7925C73.1674 23.019 73.4443 23.3317 73.6349 23.7304C73.7785 24.0104 73.8491 24.3185 73.8474 24.6547H69.16Z" fill="black"/>
<path opacity="0.4" d="M76.3342 21.6507H77.3555V22.5382C77.5416 22.2514 77.7822 22.019 78.0772 21.841C78.4766 21.6054 78.9124 21.4875 79.3844 21.4875C79.9473 21.4875 80.4556 21.6461 80.9095 21.9633C81.2605 22.2085 81.5328 22.5105 81.7263 22.8694C81.9132 22.4746 82.181 22.1636 82.53 21.9361C82.9839 21.6371 83.4832 21.4875 84.0278 21.4875C84.5181 21.4875 84.9674 21.6054 85.3759 21.841C85.7935 22.0766 86.1249 22.4028 86.37 22.8197C86.6242 23.2274 86.7513 23.6896 86.7513 24.2061V28.9366H85.73V24.6003C85.73 24.1563 85.6483 23.7802 85.4849 23.4721C85.3305 23.164 85.1172 22.9284 84.8449 22.7653C84.5725 22.5931 84.2593 22.507 83.9053 22.507C83.5603 22.507 83.2471 22.5931 82.9657 22.7653C82.6843 22.9284 82.4619 23.1685 82.2985 23.4857C82.1351 23.7938 82.0534 24.1654 82.0534 24.6003V28.9366H81.0321V24.6003C81.0321 24.1563 80.9504 23.7802 80.787 23.4721C80.6327 23.164 80.4193 22.9284 80.147 22.7653C79.8747 22.5931 79.5615 22.507 79.2074 22.507C78.8534 22.507 78.5356 22.5931 78.2542 22.7653C77.9819 22.9284 77.764 23.1685 77.6006 23.4857C77.4372 23.7938 77.3555 24.1654 77.3555 24.6003V28.9366H76.3342V21.6507Z" fill="black"/>
<path opacity="0.4" d="M88.3095 31.927C88.1642 31.927 88.0145 31.9134 87.8601 31.8862C87.7149 31.8681 87.5696 31.8318 87.4244 31.7775V30.826C87.5152 30.835 87.6286 30.8486 87.7648 30.8667C87.9101 30.8939 88.0553 30.9075 88.2006 30.9075C88.6454 30.9075 88.9858 30.8124 89.2218 30.6221C89.4579 30.4408 89.6894 30.0874 89.9163 29.5618L90.1801 28.9419L87.261 21.6506H88.364L90.7535 27.6649L93.1299 21.6506H94.2601L90.924 29.8609C90.7787 30.2143 90.5926 30.5496 90.3657 30.8667C90.1478 31.1839 89.8709 31.4377 89.535 31.628C89.1991 31.8273 88.7906 31.927 88.3095 31.927Z" fill="black"/>
<path opacity="0.4" fill-rule="evenodd" clip-rule="evenodd" d="M53.1785 28.8414C53.5416 29.0136 53.9546 29.0997 54.4179 29.0997C54.8446 29.0997 55.2349 29.0363 55.5887 28.9094C55.9518 28.7735 56.265 28.5968 56.5283 28.3793C56.7107 28.2275 56.8605 28.0657 56.9776 27.8937V28.9366H57.9992V23.9343C57.9992 23.454 57.8812 23.0326 57.6449 22.6701C57.4179 22.2986 57.0956 22.0086 56.6783 21.8002C56.2695 21.5918 55.7978 21.4875 55.2619 21.4875C54.8537 21.4875 54.4585 21.5646 54.0772 21.7186C53.6959 21.8636 53.3555 22.063 53.0559 22.3167C52.7657 22.5705 52.5521 22.8514 52.4159 23.1595L53.3422 23.6624C53.5053 23.309 53.7549 23.0235 54.0911 22.8061C54.4267 22.5795 54.8171 22.4662 55.2619 22.4662C55.7702 22.4662 56.1836 22.6022 56.5013 22.874C56.8188 23.1459 56.9776 23.4993 56.9776 23.9343V24.3103L54.3359 24.7498C53.8003 24.8405 53.36 24.9945 53.0154 25.212C52.6701 25.4295 52.4159 25.6968 52.2525 26.014C52.0894 26.3221 52.0077 26.6665 52.0077 27.0471C52.0077 27.4458 52.1118 27.7992 52.3206 28.1073C52.5297 28.4155 52.8153 28.6602 53.1785 28.8414ZM56.9776 25.2347V25.7829C56.9776 26.2269 56.8735 26.6302 56.6644 26.9927C56.4556 27.3552 56.1651 27.6451 55.7932 27.8626C55.421 28.0711 54.9853 28.1753 54.4857 28.1753C54.0772 28.1753 53.7413 28.062 53.478 27.8354C53.2241 27.6089 53.0971 27.3325 53.0971 27.0063C53.0971 26.671 53.2105 26.381 53.4372 26.1363C53.6732 25.8917 54.0545 25.724 54.581 25.6334L56.9776 25.2347Z" fill="black"/>
<path opacity="0.4" d="M48.0199 29.0997C47.3027 29.0997 46.6718 28.9321 46.1271 28.5968C45.5825 28.2614 45.1558 27.8083 44.8471 27.2374C44.5385 26.6574 44.3842 26.0049 44.3842 25.28C44.3842 24.555 44.5385 23.9071 44.8471 23.3362C45.1558 22.7653 45.5825 22.3167 46.1271 21.9905C46.6718 21.6552 47.3027 21.4875 48.0199 21.4875C48.4738 21.4875 48.9005 21.5691 49.2999 21.7322C49.6993 21.8953 50.0534 22.1174 50.362 22.3983C50.6707 22.6701 50.9022 22.9873 51.0565 23.3498L50.1305 23.8255C49.949 23.4359 49.6721 23.1187 49.2999 22.874C48.9277 22.6294 48.501 22.507 48.0199 22.507C47.5388 22.507 47.103 22.6294 46.7127 22.874C46.3314 23.1096 46.0273 23.4404 45.8003 23.8663C45.5825 24.2832 45.4735 24.7589 45.4735 25.2936C45.4735 25.8192 45.5825 26.2949 45.8003 26.7208C46.0273 27.1377 46.3314 27.4684 46.7127 27.7131C47.103 27.9578 47.5388 28.0801 48.0199 28.0801C48.501 28.0801 48.9232 27.9578 49.2863 27.7131C49.6585 27.4684 49.9399 27.1422 50.1305 26.7344L51.0565 27.2374C50.9022 27.5908 50.6707 27.9079 50.362 28.1889C50.0534 28.4699 49.6993 28.6919 49.2999 28.855C48.9005 29.0181 48.4738 29.0997 48.0199 29.0997Z" fill="black"/>
<path opacity="0.4" fill-rule="evenodd" clip-rule="evenodd" d="M39.2802 18.8096L35.5764 28.9364H36.7202L37.6054 26.4624H42.1398L43.0113 28.9364H44.1551L40.4513 18.8096H39.2802ZM41.7585 25.4429H37.9594L39.8652 20.086L41.7585 25.4429Z" fill="black"/>
<path opacity="0.72" d="M36.4993 2.40674V14.4939H44.1384V12.3036H39.0184V2.40674H36.4993Z" fill="black"/>
<path opacity="0.72" d="M74.9713 14.494H77.4093V5.6355H74.9713V14.494Z" fill="black"/>
<path opacity="0.72" d="M74.9713 2.40674V4.84041H77.4093V2.40674H74.9713Z" fill="black"/>
<path opacity="0.72" fill-rule="evenodd" clip-rule="evenodd" d="M78.7058 17.7388V5.63536H80.9813V6.55436C81.2443 6.24552 81.5691 5.99866 81.9563 5.81383C82.4655 5.56505 83.0454 5.44067 83.6956 5.44067C84.5407 5.44067 85.3044 5.64618 85.9872 6.0572C86.6698 6.46821 87.2116 7.02524 87.6125 7.72831C88.0133 8.42055 88.2139 9.19931 88.2139 10.0646C88.2139 10.9191 88.0133 11.6979 87.6125 12.4009C87.2224 13.104 86.686 13.661 86.0034 14.072C85.3208 14.4831 84.5461 14.6886 83.6791 14.6886C83.0723 14.6886 82.5089 14.5804 81.9889 14.3641C81.6686 14.2212 81.387 14.0377 81.1438 13.8136V17.7388H78.7058ZM83.3867 12.4983C83.8417 12.4983 84.2426 12.3955 84.5895 12.19C84.9362 11.9845 85.2071 11.6979 85.402 11.3301C85.5972 10.9624 85.6945 10.5405 85.6945 10.0646C85.6945 9.58869 85.5972 9.17227 85.402 8.81534C85.2071 8.4476 84.9362 8.16096 84.5895 7.95545C84.2426 7.73912 83.8417 7.63095 83.3867 7.63095C82.9532 7.63095 82.5631 7.73371 82.2164 7.93922C81.8806 8.14473 81.615 8.43134 81.4201 8.79912C81.2357 9.16686 81.1438 9.58869 81.1438 10.0646C81.1438 10.5405 81.2357 10.9624 81.4201 11.3301C81.615 11.6979 81.8806 11.9845 82.2164 12.19C82.5631 12.3955 82.9532 12.4983 83.3867 12.4983Z" fill="black"/>
<path opacity="0.72" d="M90.0806 14.0072C90.8066 14.4614 91.6571 14.6886 92.6324 14.6886C93.3257 14.6886 93.9271 14.575 94.4364 14.3479C94.9456 14.1099 95.3413 13.7854 95.623 13.3744C95.9155 12.9634 96.0619 12.4821 96.0619 11.9304C96.0619 11.2923 95.8667 10.7569 95.4766 10.3242C95.0866 9.88074 94.5232 9.55083 93.7864 9.33451L92.3722 8.91267C92.1555 8.8478 91.9714 8.77748 91.8196 8.70176C91.6789 8.62606 91.5759 8.53952 91.511 8.44219C91.446 8.34483 91.4134 8.23665 91.4134 8.11769C91.4134 7.89054 91.4999 7.71208 91.6735 7.5823C91.8576 7.45248 92.1067 7.38761 92.421 7.38761C92.8545 7.38761 93.2392 7.50116 93.5751 7.72831C93.9217 7.94463 94.16 8.23665 94.2903 8.60443L96.0942 7.76076C95.8233 7.02524 95.3575 6.4574 94.6965 6.0572C94.0463 5.64618 93.288 5.44067 92.421 5.44067C91.76 5.44067 91.1751 5.55964 90.6656 5.7976C90.1564 6.02474 89.7609 6.34381 89.4792 6.75483C89.1975 7.16587 89.0568 7.64717 89.0568 8.19882C89.0568 8.82616 89.2517 9.37237 89.6418 9.83747C90.0318 10.2918 90.5898 10.6216 91.3158 10.8272L92.8273 11.249C93.0225 11.3031 93.185 11.368 93.3149 11.4437C93.4449 11.5194 93.5425 11.6059 93.6074 11.7033C93.6727 11.7898 93.705 11.898 93.705 12.0278C93.705 12.2766 93.6128 12.4712 93.4287 12.6118C93.2446 12.7524 92.9791 12.8228 92.6324 12.8228C92.1555 12.8228 91.7223 12.6876 91.332 12.4172C90.9419 12.1467 90.6332 11.7736 90.4057 11.2977L88.6179 12.1413C88.8778 12.9201 89.3654 13.5421 90.0806 14.0072Z" fill="black"/>
<path opacity="0.72" d="M106.273 5.63536H108.549V6.70547C108.715 6.3817 108.948 6.12233 109.248 5.92739C109.746 5.60291 110.342 5.44067 111.035 5.44067C111.772 5.44067 112.417 5.62996 112.97 6.00852C113.298 6.22303 113.555 6.48172 113.74 6.78459C113.975 6.44188 114.254 6.16696 114.579 5.95984C115.12 5.61373 115.754 5.44067 116.48 5.44067C117.119 5.44067 117.683 5.58128 118.17 5.86251C118.669 6.14371 119.059 6.5385 119.341 7.04688C119.622 7.54443 119.763 8.1285 119.763 8.79912V14.4939H117.325V9.31828C117.325 8.97217 117.26 8.67474 117.13 8.42596C117.011 8.17718 116.838 7.98249 116.61 7.84186C116.383 7.70126 116.106 7.63095 115.781 7.63095C115.467 7.63095 115.191 7.70126 114.953 7.84186C114.725 7.98249 114.546 8.17718 114.416 8.42596C114.297 8.67474 114.237 8.97217 114.237 9.31828V14.4939H111.799V9.31828C111.799 8.97217 111.734 8.67474 111.604 8.42596C111.485 8.17718 111.312 7.98249 111.084 7.84186C110.857 7.70126 110.58 7.63095 110.255 7.63095C109.941 7.63095 109.665 7.70126 109.426 7.84186C109.199 7.98249 109.02 8.17718 108.89 8.42596C108.771 8.67474 108.711 8.97217 108.711 9.31828V14.4939H106.273V5.63536Z" fill="black"/>
<path opacity="0.72" d="M100.217 14.6887C99.5016 14.6887 98.8894 14.5373 98.3802 14.2344C97.8818 13.9208 97.5025 13.4881 97.2426 12.9365C96.9825 12.3848 96.8525 11.7413 96.8525 11.0058V5.6355H99.2906V10.8111C99.2906 11.1464 99.3555 11.4438 99.4854 11.7034C99.6264 11.9522 99.8213 12.1469 100.071 12.2875C100.32 12.4281 100.601 12.4984 100.916 12.4984C101.241 12.4984 101.523 12.4281 101.761 12.2875C102.01 12.1469 102.2 11.9522 102.33 11.7034C102.471 11.4438 102.541 11.1464 102.541 10.8111V5.6355H104.979V14.494H102.704V13.416C102.497 13.805 102.204 14.1048 101.826 14.3155C101.371 14.5643 100.834 14.6887 100.217 14.6887Z" fill="black"/>
<path opacity="0.72" fill-rule="evenodd" clip-rule="evenodd" d="M69.2769 14.6886C68.3992 14.6886 67.5972 14.4885 66.8712 14.0883C66.1561 13.6881 65.5819 13.1419 65.1484 12.4496C64.726 11.7465 64.5146 10.9516 64.5146 10.0646C64.5146 9.16686 64.726 8.37187 65.1484 7.67963C65.5819 6.98738 66.1561 6.44117 66.8712 6.04097C67.5972 5.64077 68.3992 5.44067 69.2769 5.44067C70.1544 5.44067 70.951 5.64077 71.6661 6.04097C72.381 6.44117 72.9501 6.98738 73.3725 7.67963C73.806 8.37187 74.0227 9.16686 74.0227 10.0646C74.0227 10.9516 73.806 11.7465 73.3725 12.4496C72.9501 13.1419 72.381 13.6881 71.6661 14.0883C70.951 14.4885 70.1544 14.6886 69.2769 14.6886ZM69.2769 12.4983C69.7212 12.4983 70.1059 12.3955 70.4307 12.19C70.7666 11.9845 71.0267 11.6979 71.2108 11.3301C71.406 10.9624 71.5036 10.5405 71.5036 10.0646C71.5036 9.58869 71.406 9.17227 71.2108 8.81534C71.0267 8.4476 70.7666 8.16096 70.4307 7.95545C70.1059 7.73912 69.7212 7.63095 69.2769 7.63095C68.8327 7.63095 68.4426 7.73912 68.1067 7.95545C67.7705 8.16096 67.5053 8.4476 67.3101 8.81534C67.126 9.17227 67.0338 9.58869 67.0338 10.0646C67.0338 10.5405 67.126 10.9624 67.3101 11.3301C67.5053 11.6979 67.7705 11.9845 68.1067 12.19C68.4426 12.3955 68.8327 12.4983 69.2769 12.4983Z" fill="black"/>
<path opacity="0.72" fill-rule="evenodd" clip-rule="evenodd" d="M57.2749 17.7225C57.8599 17.9497 58.4939 18.0632 59.1765 18.0632C60.0324 18.0632 60.7856 17.8902 61.4358 17.5441C62.0968 17.1979 62.6168 16.7166 62.9961 16.1001C63.3751 15.4944 63.5649 14.8021 63.5649 14.0234V5.63536H61.2894V6.56577C61.0216 6.2522 60.7183 6.00693 60.3793 5.83005C59.9024 5.57046 59.3444 5.44067 58.705 5.44067C57.8925 5.44067 57.1666 5.62455 56.5271 5.99229C55.888 6.36004 55.3841 6.86841 55.0156 7.51739C54.6471 8.15555 54.463 8.89104 54.463 9.72389C54.463 10.5568 54.6471 11.3031 55.0156 11.9629C55.3841 12.6118 55.8934 13.1256 56.5436 13.5042C57.1935 13.8719 57.9302 14.0558 58.7538 14.0558C59.3932 14.0558 59.9512 13.9368 60.4278 13.6989C60.6863 13.564 60.9195 13.3926 61.1268 13.1847V14.0234C61.1268 14.4019 61.0457 14.7318 60.8832 15.0131C60.7314 15.2943 60.5093 15.5052 60.2168 15.6458C59.924 15.7972 59.5773 15.873 59.1765 15.873C58.6673 15.873 58.2284 15.754 57.8599 15.516C57.4917 15.278 57.2477 14.9536 57.1285 14.5425L54.8693 15.3375C55.0537 15.8892 55.3515 16.3651 55.7634 16.7653C56.1858 17.1763 56.6897 17.4954 57.2749 17.7225ZM60.168 11.5897C59.8644 11.7628 59.507 11.8493 59.0951 11.8493C58.6834 11.8493 58.3149 11.7628 57.9901 11.5897C57.6758 11.4058 57.4264 11.1571 57.2423 10.8434C57.069 10.5297 56.9822 10.1674 56.9822 9.75634C56.9822 9.33451 57.069 8.96676 57.2423 8.65311C57.4264 8.3286 57.6758 8.07982 57.9901 7.90677C58.3149 7.7229 58.6834 7.63095 59.0951 7.63095C59.4962 7.63095 59.8483 7.7229 60.1515 7.90677C60.4551 8.07982 60.6934 8.3286 60.8667 8.65311C61.0403 8.96676 61.1268 9.33451 61.1268 9.75634C61.1268 10.1782 61.0403 10.5459 60.8667 10.8596C60.7041 11.1733 60.4712 11.4167 60.168 11.5897Z" fill="black"/>
<path opacity="0.72" fill-rule="evenodd" clip-rule="evenodd" d="M49.126 14.6886C48.2483 14.6886 47.4466 14.4885 46.7206 14.0883C46.0054 13.6881 45.4313 13.1419 44.9978 12.4496C44.5751 11.7465 44.364 10.9516 44.364 10.0646C44.364 9.16686 44.5751 8.37187 44.9978 7.67963C45.4313 6.98738 46.0054 6.44117 46.7206 6.04097C47.4466 5.64077 48.2483 5.44067 49.126 5.44067C50.0037 5.44067 50.8 5.64077 51.5152 6.04097C52.2304 6.44117 52.7992 6.98738 53.2219 7.67963C53.6554 8.37187 53.8721 9.16686 53.8721 10.0646C53.8721 10.9516 53.6554 11.7465 53.2219 12.4496C52.7992 13.1419 52.2304 13.6881 51.5152 14.0883C50.8 14.4885 50.0037 14.6886 49.126 14.6886ZM49.126 12.4983C49.5703 12.4983 49.9549 12.3955 50.28 12.19C50.6159 11.9845 50.8761 11.6979 51.0602 11.3301C51.2554 10.9624 51.3527 10.5405 51.3527 10.0646C51.3527 9.58869 51.2554 9.17227 51.0602 8.81534C50.8761 8.4476 50.6159 8.16096 50.28 7.95545C49.9549 7.73912 49.5703 7.63095 49.126 7.63095C48.6817 7.63095 48.2917 7.73912 47.9558 7.95545C47.6199 8.16096 47.3544 8.4476 47.1595 8.81534C46.9754 9.17227 46.8832 9.58869 46.8832 10.0646C46.8832 10.5405 46.9754 10.9624 47.1595 11.3301C47.3544 11.6979 47.6199 11.9845 47.9558 12.19C48.2917 12.3955 48.6817 12.4983 49.126 12.4983Z" fill="black"/>
</g>
<defs>
<clipPath id="clip0_264_122">
<rect width="120" height="32" fill="white"/>
</clipPath>
</defs>
</svg>
