<svg width="29" height="32" viewBox="0 0 29 32" fill="none" xmlns="http://www.w3.org/2000/svg">
<g opacity="0.72" clip-path="url(#clip0_264_120)">
<path fill-rule="evenodd" clip-rule="evenodd" d="M0 12V24.8H4.02778C4.45091 24.8 4.86991 24.8828 5.26089 25.0436C5.65177 25.2044 6.00705 25.4401 6.30619 25.7373C6.60542 26.0344 6.8428 26.3872 7.00476 26.7754C7.16661 27.1637 7.25 27.5798 7.25 28V32H16.9167L29 20V7.2H24.9722C24.5491 7.2 24.1301 7.11724 23.7391 6.95642C23.3482 6.79561 22.993 6.55989 22.6938 6.26274C22.3946 5.9656 22.1572 5.61282 21.9952 5.22458C21.8334 4.83635 21.75 4.42024 21.75 4V0H12.0833L0 12ZM13.6944 24H8.05556V15.2L15.3056 8H20.9444V16.8L13.6944 24Z" fill="black"/>
</g>
<defs>
<clipPath id="clip0_264_120">
<rect width="29" height="32" fill="white"/>
</clipPath>
</defs>
</svg>
