<svg width="19" height="28" viewBox="0 0 19 28" fill="none" xmlns="http://www.w3.org/2000/svg">
<path d="M0 23.3333C0 20.756 2.12667 18.6667 4.75 18.6667H9.5V23.3333C9.5 25.9106 7.37333 28 4.75 28C2.12667 28 0 25.9106 0 23.3333Z" fill="#24CB71"/>
<path d="M9.5 0V9.33333H14.25C16.8733 9.33333 19 7.24397 19 4.66667C19 2.08936 16.8733 0 14.25 0H9.5Z" fill="#FF7237"/>
<path d="M14.2104 18.6667C16.8338 18.6667 18.9604 16.5773 18.9604 14C18.9604 11.4227 16.8338 9.33333 14.2104 9.33333C11.5871 9.33333 9.46043 11.4227 9.46043 14C9.46043 16.5773 11.5871 18.6667 14.2104 18.6667Z" fill="#00B6FF"/>
<path d="M0 4.66667C0 7.24397 2.12667 9.33333 4.75 9.33333H9.5V0H4.75C2.12667 0 0 2.08936 0 4.66667Z" fill="#FF3737"/>
<path d="M0 14C0 16.5773 2.12667 18.6667 4.75 18.6667H9.5V9.33333H4.75C2.12667 9.33333 0 11.4227 0 14Z" fill="#874FFF"/>
</svg>
