<svg width="29" height="28" viewBox="0 0 29 28" fill="none" xmlns="http://www.w3.org/2000/svg">
<g clip-path="url(#clip0_200_204)">
<path d="M5.13542 0H23.8646C26.7042 0 29 2.2735 29 5.08547V22.9145C29 25.7265 26.7042 28 23.8646 28H5.13542C2.29583 28 0 25.7265 0 22.9145V5.08547C0 2.2735 2.29583 0 5.13542 0Z" fill="#001E36"/>
<path d="M6.52499 19.6359V7.32308C6.52499 7.23932 6.56124 7.19145 6.64583 7.19145C6.85124 7.19145 7.04458 7.19145 7.32249 7.17949C7.61249 7.16752 7.91458 7.16752 8.24083 7.15556C8.56708 7.14359 8.91749 7.14359 9.29208 7.13163C9.66666 7.11966 10.0292 7.11966 10.3917 7.11966C11.3825 7.11966 12.2042 7.23932 12.8808 7.4906C13.485 7.69402 14.0408 8.02906 14.5 8.4718C14.8867 8.8547 15.1887 9.32137 15.3821 9.8359C15.5633 10.3385 15.66 10.853 15.66 11.3915C15.66 12.4205 15.4183 13.2701 14.935 13.9402C14.4517 14.6103 13.775 15.1128 12.9896 15.4C12.1679 15.6991 11.2617 15.8068 10.2708 15.8068C9.98083 15.8068 9.78749 15.8068 9.66666 15.7949C9.54583 15.7829 9.37666 15.7829 9.14708 15.7829V19.6239C9.15916 19.7077 9.09874 19.7795 9.01416 19.7915C9.00208 19.7915 8.98999 19.7915 8.96583 19.7915H6.66999C6.57333 19.7915 6.52499 19.7436 6.52499 19.6359ZM9.15916 9.50086V13.5214C9.32833 13.5333 9.48541 13.5453 9.63041 13.5453H10.2708C10.7421 13.5453 11.2133 13.4735 11.6604 13.3299C12.0471 13.2222 12.3854 12.9949 12.6512 12.6957C12.905 12.3966 13.0258 11.9897 13.0258 11.4632C13.0379 11.0923 12.9412 10.7214 12.7479 10.3983C12.5425 10.0872 12.2525 9.84786 11.9021 9.71624C11.455 9.53675 10.9717 9.46496 10.4762 9.47692C10.1621 9.47692 9.88416 9.47692 9.65458 9.48889C9.41291 9.47692 9.24374 9.48889 9.15916 9.50086Z" fill="#31A8FF"/>
<path d="M23.2 12.7915C22.8375 12.6 22.4508 12.4684 22.04 12.3846C21.5929 12.2889 21.1458 12.2291 20.6867 12.2291C20.445 12.2171 20.1912 12.253 19.9617 12.3128C19.8046 12.3487 19.6717 12.4325 19.5871 12.5521C19.5267 12.6479 19.4904 12.7675 19.4904 12.8752C19.4904 12.9829 19.5387 13.0906 19.6112 13.1863C19.72 13.318 19.865 13.4257 20.0221 13.5094C20.3 13.653 20.59 13.7846 20.88 13.9043C21.5325 14.1197 22.1608 14.4188 22.7408 14.7778C23.1396 15.0291 23.4658 15.3641 23.6954 15.7709C23.8887 16.1539 23.9854 16.5727 23.9733 17.0034C23.9854 17.5658 23.8162 18.1282 23.5021 18.5949C23.1637 19.0735 22.6925 19.4445 22.1487 19.6598C21.5567 19.9111 20.8317 20.0427 19.9617 20.0427C19.4058 20.0427 18.8621 19.9949 18.3183 19.8872C17.8954 19.8154 17.4725 19.6838 17.0858 19.5043C17.0012 19.4564 16.9408 19.3727 16.9529 19.2769V17.1949C16.9529 17.159 16.965 17.1111 17.0012 17.0872C17.0375 17.0633 17.0737 17.0752 17.11 17.0992C17.5812 17.3744 18.0767 17.5658 18.6083 17.6855C19.0675 17.8051 19.5508 17.865 20.0342 17.865C20.4933 17.865 20.8196 17.8051 21.0371 17.6974C21.2304 17.6137 21.3633 17.4103 21.3633 17.1949C21.3633 17.0274 21.2667 16.8718 21.0733 16.7162C20.88 16.5607 20.4812 16.3812 19.8892 16.1539C19.2729 15.9385 18.705 15.6513 18.1733 15.2923C17.7987 15.0291 17.4846 14.6821 17.255 14.2752C17.0617 13.8923 16.965 13.4735 16.9771 13.0547C16.9771 12.5402 17.1221 12.0496 17.3879 11.6068C17.69 11.1282 18.1371 10.7453 18.6567 10.506C19.2246 10.2188 19.9375 10.0872 20.7954 10.0872C21.2908 10.0872 21.7983 10.1231 22.2937 10.1949C22.6562 10.2427 23.0067 10.3385 23.3329 10.4701C23.3812 10.4821 23.4296 10.5299 23.4537 10.5778C23.4658 10.6257 23.4779 10.6735 23.4779 10.7214V12.6718C23.4779 12.7197 23.4537 12.7675 23.4175 12.7915C23.3087 12.8154 23.2483 12.8154 23.2 12.7915Z" fill="#31A8FF"/>
</g>
<defs>
<clipPath id="clip0_200_204">
<rect width="29" height="28" fill="white"/>
</clipPath>
</defs>
</svg>
