<svg width="125" height="24" viewBox="0 0 125 24" fill="none" xmlns="http://www.w3.org/2000/svg">
<g clip-path="url(#clip0_194_21)">
<path d="M57.9276 2.40095C57.7344 3.7765 58.6248 4.8019 60.012 4.8019C61.3995 4.8019 62.5778 3.7765 62.7709 2.40095C62.9641 1.02541 62.0736 0 60.686 0C59.2988 0 58.1206 1.02541 57.9276 2.40095Z" fill="black"/>
<path d="M57.9623 5.92734L56.7724 14.4044L60.5766 14.2584L61.7458 5.92734H57.9623Z" fill="black"/>
<path fill-rule="evenodd" clip-rule="evenodd" d="M47.9704 18.6075C50.9714 18.6075 53.5221 17.0075 54.7975 14.584L56.736 14.6634L56.2281 18.2822H60.012L60.4982 14.8174L62.5042 14.8996L61.2883 23.5595H65.0724L66.0024 16.9319C66.6298 18.0323 67.8104 18.6075 69.299 18.6075C71.311 18.6075 73.6734 17.5673 75.0855 15.4147L76.5347 15.474C76.7817 17.3442 78.5221 18.6075 81.2835 18.6075C84.4869 18.6075 86.8445 16.9069 87.2028 14.3558C87.6136 11.4297 84.9306 10.9545 83.1746 10.7044L83.0215 10.681C81.9599 10.5189 81.1495 10.3952 81.25 9.67895C81.3206 9.17879 81.7656 8.70359 82.6986 8.70359C83.4557 8.70359 83.9145 9.02873 83.9348 9.60395H87.6172C87.8541 7.37807 86.1866 5.60237 83.0837 5.60237C79.9809 5.60237 77.7422 7.35305 77.3912 9.85403C76.9737 12.8302 79.7392 13.2554 81.4193 13.5055L81.512 13.5196L81.6412 13.5391L81.6423 13.5393C82.6699 13.6939 83.445 13.8104 83.3367 14.581C83.2632 15.1061 82.8284 15.5063 81.6681 15.5063C80.634 15.5063 80.2004 15.1812 80.2662 14.5309L53.4874 14.5304L54.8522 14.4781C55.2197 13.7518 55.4738 12.954 55.593 12.1049C56.1196 8.35343 53.731 5.60237 49.7959 5.60237C49.7349 5.60237 49.6742 5.60303 49.6135 5.60434L49.6256 5.59625L37.697 5.59626C37.5261 5.59511 37.3638 5.59511 37.2118 5.59626H37.697C40.7602 5.61694 46.5979 6.00593 45.8469 6.63965C43.8856 7.77059 42.5054 9.73877 42.1733 12.1049C41.6467 15.8564 44.0353 18.6075 47.9704 18.6075ZM48.4618 15.1061C50.1772 15.1061 51.5095 13.8806 51.7588 12.1049C52.0081 10.3292 51.0197 9.10373 49.3044 9.10373C47.5891 9.10373 46.2568 10.3292 46.0075 12.1049C45.7583 13.8806 46.7466 15.1061 48.4618 15.1061Z" fill="black"/>
<path d="M72.4312 12.105C72.3385 12.7687 72.0939 13.3556 71.7344 13.8303L75.9199 13.6697C76.064 13.2286 76.174 12.7572 76.2446 12.255C76.8026 8.27845 74.4037 5.60239 70.4432 5.60239C66.6346 5.60239 63.4617 8.07835 62.8786 12.23L62.6053 14.1806L66.9898 14.0124C66.6908 13.5091 66.5748 12.8563 66.68 12.105C66.9294 10.3293 68.262 9.10375 69.9773 9.10375C71.6926 9.10375 72.6806 10.3293 72.4312 12.105Z" fill="black"/>
<path d="M101.947 16.3836L102.657 11.3296C103.215 7.35307 105.782 5.60239 108.809 5.60239C110.574 5.60239 111.968 6.27763 112.718 7.57819C113.834 6.27763 115.392 5.60239 117.183 5.60239C120.211 5.60239 122.285 7.35307 121.727 11.3296L120.751 18.2824H116.967L117.943 11.3296C118.175 9.67897 117.449 9.10375 116.313 9.10375C115.203 9.10375 114.316 9.67897 114.084 11.3296L113.108 18.2824H109.324L110.3 11.3296C110.532 9.67897 109.806 9.10375 108.696 9.10375C107.56 9.10375 106.672 9.67897 106.441 11.3296L105.465 18.2824H103.197L103.198 18.2839H97.8965C100.096 18.0607 101.786 17.4579 101.944 16.3783L101.947 16.3836Z" fill="black"/>
<path d="M93.875 18.6074C90.192 18.6074 88.015 16.5065 88.6011 12.3299L89.2637 7.61136C89.3696 6.39252 88.4109 6.24024 86.2961 5.93484H89.4988L89.5 5.92734H93.2841L92.3852 12.3299C92.1112 14.2807 92.9539 15.106 94.3666 15.106C95.7793 15.106 96.8535 14.2807 97.1274 12.3299L98.0263 5.92734H101.81L100.911 12.3299C100.328 16.4815 97.558 18.6074 93.875 18.6074Z" fill="black"/>
<path d="M29.4362 16.8201C29.1688 16.5271 28.9379 16.2031 28.7466 15.8515L26.0451 15.7042C24.6478 17.4883 22.4528 18.6075 19.9429 18.6075C16.0078 18.6075 13.6192 15.8565 14.1458 12.105C14.6724 8.35345 17.8333 5.60239 21.7684 5.60239C25.7035 5.60239 28.0921 8.35345 27.5655 12.105C27.4451 12.9625 27.1871 13.7677 26.8137 14.4998L21.9469 14.7485C22.8945 14.2612 23.5622 13.3097 23.7313 12.105C23.9806 10.3293 22.9922 9.10375 21.2769 9.10375C19.5617 9.10375 18.2292 10.3293 17.98 12.105C17.7934 13.4342 18.3004 14.4552 19.2865 14.8845L15.0163 15.1027H34.5413V15.105C36.2115 15.0614 37.5003 13.8484 37.745 12.105C37.9943 10.3293 37.0059 9.10375 35.2906 9.10375C33.5754 9.10375 32.243 10.3293 31.9937 12.105C31.8737 12.9602 32.0407 13.6878 32.4378 14.2123L28.223 14.4277C28.0692 13.715 28.0431 12.9345 28.1595 12.105C28.6861 8.35345 31.847 5.60239 35.7821 5.60239C39.7172 5.60239 42.1058 8.35345 41.5792 12.105C41.0705 15.7287 38.1039 18.4191 34.3558 18.598C35.2385 19.0955 36.5206 19.4978 37.463 19.7934C37.7775 19.8921 38.0541 19.9789 38.2654 20.0533C39.1212 20.2651 39.6681 21.0558 39.5358 21.9988C39.3806 23.104 38.3512 24 37.2365 24H31.1813C29.202 24 27.7536 22.5877 27.6707 20.724L20.2022 19.9986H27.7062L27.7063 19.9977H34.1635C32.687 19.4316 31.1269 18.299 30.1239 17.4444C29.8738 17.2565 29.6444 17.0481 29.437 16.821L29.4362 16.8201Z" fill="black"/>
<path d="M0 1.92585L3.09079 2.41833L0.863971 18.2823H12.7449L13.2715 14.5308H5.47701L7.24635 1.92581L0 1.92585Z" fill="black"/>
<path d="M125 4.72615C125 5.52335 124.355 6.16963 123.558 6.16963C122.762 6.16963 122.117 5.52335 122.117 4.72615C122.117 3.92894 122.762 3.28268 123.558 3.28268C124.355 3.28268 125 3.92894 125 4.72615Z" fill="black"/>
</g>
<defs>
<clipPath id="clip0_194_21">
<rect width="125" height="24" fill="white"/>
</clipPath>
</defs>
</svg>
