<svg width="122" height="24" viewBox="0 0 122 24" fill="none" xmlns="http://www.w3.org/2000/svg">
<g clip-path="url(#clip0_194_8)">
<path fill-rule="evenodd" clip-rule="evenodd" d="M15.4346 7.01118C14.4414 6.3519 13.2737 6 12.0792 6V0C14.4682 0 16.8036 0.703788 18.7901 2.02237C20.7765 3.34094 22.3247 5.21509 23.2389 7.40778C24.1532 9.60048 24.3924 12.0133 23.9263 14.3411C23.4602 16.6688 22.3098 18.8071 20.6205 20.4853C18.9312 22.1635 16.7789 23.3064 14.4357 23.7694C12.0926 24.2324 9.66385 23.9948 7.45668 23.0866C5.2495 22.1783 3.36299 20.6402 2.03572 18.6668C0.708434 16.6934 0 14.3734 0 12H6.0396C6.0396 13.1867 6.39383 14.3467 7.05746 15.3334C7.72109 16.3201 8.66436 17.0891 9.76797 17.5433C10.8715 17.9974 12.0859 18.1162 13.2575 17.8847C14.429 17.6532 15.5052 17.0818 16.3499 16.2427C17.1945 15.4035 17.7697 14.3344 18.0027 13.1705C18.2358 12.0067 18.1162 10.8002 17.6591 9.70392C17.2019 8.60754 16.4278 7.67046 15.4346 7.01118Z" fill="black"/>
<path fill-rule="evenodd" clip-rule="evenodd" d="M6.0396 3.17096e-06C6.0396 0.787934 5.88339 1.56815 5.57987 2.29611C5.27635 3.02406 4.83147 3.68549 4.27064 4.24264C3.70982 4.7998 3.04402 5.24175 2.31126 5.54328C1.5785 5.84481 0.793129 6 2.63997e-07 6L0 12C1.58626 12 3.15699 11.6896 4.62252 11.0866C6.08804 10.4835 7.41965 9.59958 8.54127 8.48526C9.66294 7.371 10.5527 6.04812 11.1597 4.5922C11.7668 3.13629 12.0792 1.57586 12.0792 0L6.0396 3.17096e-06Z" fill="black"/>
<path d="M75.8689 8.67151H72.9385V17.9189H75.8689V8.67151Z" fill="black"/>
<path d="M73.2646 6.93997C73.5708 7.24441 73.9537 7.39663 74.4134 7.39663C74.873 7.39663 75.2498 7.24441 75.5434 6.93997C75.8375 6.62287 75.9843 6.24229 75.9843 5.79832C75.9843 5.34167 75.8375 4.96111 75.5434 4.65668C75.2498 4.35223 74.873 4.20001 74.4134 4.20001C73.9537 4.20001 73.5708 4.35223 73.2646 4.65668C72.9705 4.96111 72.8237 5.34167 72.8237 5.79832C72.8237 6.24229 72.9705 6.62287 73.2646 6.93997Z" fill="black"/>
<path d="M30.8963 17.9189V4.48541H33.9034V15.2931H39.8983V17.9189H30.8963Z" fill="black"/>
<path fill-rule="evenodd" clip-rule="evenodd" d="M45.3136 18.1282C44.3559 18.1282 43.4877 17.9189 42.7088 17.5003C41.9426 17.069 41.3361 16.4855 40.8892 15.7497C40.4423 15.014 40.2189 14.1895 40.2189 13.2761C40.2189 12.3628 40.4423 11.5447 40.8892 10.8216C41.3361 10.0985 41.9426 9.5277 42.7088 9.10914C43.4749 8.6778 44.3432 8.46216 45.3136 8.46216C46.284 8.46216 47.1523 8.6715 47.9184 9.09006C48.6845 9.50868 49.2911 10.0859 49.7379 10.8216C50.1849 11.5447 50.4083 12.3628 50.4083 13.2761C50.4083 14.1895 50.1849 15.014 49.7379 15.7497C49.2911 16.4855 48.6845 17.069 47.9184 17.5003C47.1523 17.9189 46.284 18.1282 45.3136 18.1282ZM45.3136 15.4834C45.735 15.4834 46.1052 15.3946 46.4245 15.217C46.7437 15.0267 46.9863 14.7667 47.1523 14.4368C47.331 14.0944 47.4204 13.7074 47.4204 13.2761C47.4204 12.8449 47.331 12.4706 47.1523 12.1535C46.9735 11.8237 46.7246 11.57 46.4053 11.3924C46.0988 11.2021 45.735 11.107 45.3136 11.107C44.905 11.107 44.5411 11.2021 44.2219 11.3924C43.9027 11.57 43.6537 11.8237 43.4749 12.1535C43.2961 12.4834 43.2068 12.8639 43.2068 13.2952C43.2068 13.7138 43.2961 14.0944 43.4749 14.4368C43.6537 14.7667 43.9027 15.0267 44.2219 15.217C44.5411 15.3946 44.905 15.4834 45.3136 15.4834Z" fill="black"/>
<path fill-rule="evenodd" clip-rule="evenodd" d="M52.7292 21.5341C53.508 21.8893 54.4083 22.0668 55.4298 22.0668C56.4257 22.0668 57.3132 21.8702 58.092 21.477C58.871 21.0837 59.4838 20.5383 59.9307 19.8407C60.3776 19.143 60.6014 18.3185 60.6014 17.3671V8.67149H57.7281V9.29279C57.5144 9.11411 57.2717 8.96411 57.0003 8.84273C56.5023 8.60171 55.9341 8.48117 55.2957 8.48117C54.4402 8.48117 53.6804 8.68415 53.0165 9.09005C52.3524 9.48329 51.829 10.0288 51.4459 10.7264C51.0628 11.4115 50.8713 12.1852 50.8713 13.0478C50.8713 13.8977 51.0628 14.6715 51.4459 15.3692C51.829 16.0668 52.3524 16.6187 53.0165 17.0246C53.6804 17.4305 54.4402 17.6334 55.2957 17.6334C55.9214 17.6334 56.4896 17.513 57.0003 17.272C57.2477 17.1552 57.4712 17.0176 57.6707 16.8592V17.4432C57.6707 18.0901 57.46 18.5912 57.0386 18.9464C56.63 19.3016 56.0618 19.4791 55.334 19.4791C54.7466 19.4791 54.2423 19.3777 53.8209 19.1747C53.4123 18.9718 53.042 18.6736 52.71 18.2804L50.9096 20.069C51.3565 20.7032 51.9631 21.1916 52.7292 21.5341ZM56.9045 14.7793C56.6108 14.9569 56.2598 15.0457 55.8511 15.0457C55.4425 15.0457 55.085 14.9569 54.7785 14.7793C54.4848 14.6017 54.255 14.3607 54.0891 14.0563C53.923 13.7392 53.84 13.403 53.84 13.0478C53.84 12.6673 53.923 12.3248 54.0891 12.0203C54.255 11.7159 54.4912 11.4749 54.7977 11.2973C55.1041 11.1197 55.4553 11.0309 55.8511 11.0309C56.2598 11.0309 56.6108 11.1197 56.9045 11.2973C57.211 11.4749 57.4408 11.7159 57.5941 12.0203C57.7601 12.3248 57.843 12.6673 57.843 13.0478C57.843 13.4284 57.7601 13.7708 57.5941 14.0753C57.4408 14.3671 57.211 14.6017 56.9045 14.7793Z" fill="black"/>
<path fill-rule="evenodd" clip-rule="evenodd" d="M66.7684 18.1282C65.8105 18.1282 64.9421 17.9189 64.1635 17.5003C63.3971 17.069 62.7907 16.4855 62.3438 15.7497C61.8969 15.014 61.6734 14.1895 61.6734 13.2761C61.6734 12.3628 61.8969 11.5447 62.3438 10.8216C62.7907 10.0985 63.3971 9.5277 64.1635 9.10914C64.9294 8.6778 65.7979 8.46216 66.7684 8.46216C67.7384 8.46216 68.6069 8.6715 69.3727 9.09006C70.1391 9.50868 70.7455 10.0859 71.1924 10.8216C71.6394 11.5447 71.8628 12.3628 71.8628 13.2761C71.8628 14.1895 71.6394 15.014 71.1924 15.7497C70.7455 16.4855 70.1391 17.069 69.3727 17.5003C68.6069 17.9189 67.7384 18.1282 66.7684 18.1282ZM66.7684 15.4834C67.1894 15.4834 67.5596 15.3946 67.8791 15.217C68.198 15.0267 68.4408 14.7667 68.6069 14.4368C68.7857 14.0944 68.875 13.7074 68.875 13.2761C68.875 12.8449 68.7857 12.4706 68.6069 12.1535C68.4281 11.8237 68.1793 11.57 67.8598 11.3924C67.5536 11.2021 67.1894 11.107 66.7684 11.107C66.3595 11.107 65.9954 11.2021 65.6765 11.3924C65.357 11.57 65.1081 11.8237 64.9294 12.1535C64.7506 12.4834 64.6612 12.8639 64.6612 13.2952C64.6612 13.7138 64.7506 14.0944 64.9294 14.4368C65.1081 14.7667 65.357 15.0267 65.6765 15.217C65.9954 15.3946 66.3595 15.4834 66.7684 15.4834Z" fill="black"/>
<path fill-rule="evenodd" clip-rule="evenodd" d="M82.9123 18.1091C82.2872 18.1091 81.7122 17.9887 81.1886 17.7476C80.9132 17.6208 80.6643 17.4694 80.4421 17.2933V21.8195H77.5497V8.67149H80.4801V9.30971C80.6927 9.13697 80.9289 8.98763 81.1886 8.86175C81.7122 8.60801 82.2872 8.48117 82.9123 8.48117C83.7935 8.48117 84.5726 8.69051 85.249 9.10913C85.9387 9.52769 86.475 10.0985 86.858 10.8216C87.2542 11.5447 87.4516 12.3692 87.4516 13.2952C87.4516 14.2212 87.2542 15.0457 86.858 15.7688C86.475 16.4918 85.9387 17.0626 85.249 17.4812C84.5726 17.8999 83.7935 18.1091 82.9123 18.1091ZM82.3766 15.4834C82.7975 15.4834 83.1617 15.3882 83.4679 15.1979C83.7874 15.0077 84.0363 14.7476 84.215 14.4178C84.3938 14.088 84.4832 13.7138 84.4832 13.2952C84.4832 12.8639 84.3938 12.4834 84.215 12.1535C84.0363 11.8237 83.7874 11.57 83.4679 11.3924C83.1617 11.2021 82.8042 11.107 82.3953 11.107C81.987 11.107 81.6228 11.2021 81.3039 11.3924C80.9971 11.57 80.7549 11.8237 80.5762 12.1535C80.3974 12.4834 80.308 12.8639 80.308 13.2952C80.308 13.7138 80.3907 14.088 80.5568 14.4178C80.7356 14.7476 80.9844 15.0077 81.3039 15.1979C81.6228 15.3882 81.9804 15.4834 82.3766 15.4834Z" fill="black"/>
<path d="M90.3199 17.9379C90.8562 18.0775 91.3985 18.1472 91.9475 18.1472C93.1096 18.1472 94.0288 17.8808 94.7058 17.348C95.3949 16.8153 95.7398 16.0986 95.7398 15.1979C95.7398 14.6144 95.6317 14.1451 95.4143 13.7899C95.1974 13.4221 94.9166 13.1303 94.5717 12.9146C94.2269 12.699 93.8627 12.5277 93.4798 12.4009C93.0969 12.274 92.7327 12.1662 92.3884 12.0774C92.0436 11.9886 91.7627 11.8871 91.5453 11.7729C91.3285 11.6588 91.2198 11.5066 91.2198 11.3163C91.2198 11.1387 91.3031 11.0055 91.4686 10.9167C91.6347 10.8152 91.8835 10.7645 92.2157 10.7645C92.5606 10.7645 92.9115 10.8343 93.269 10.9738C93.6392 11.1133 93.9714 11.3544 94.2649 11.6969L95.9313 10.0225C95.5103 9.48965 94.9613 9.09005 94.2843 8.82371C93.6205 8.54465 92.8927 8.40509 92.1009 8.40509C91.3478 8.40509 90.6901 8.53193 90.1284 8.78561C89.5661 9.03935 89.1319 9.38819 88.8257 9.83213C88.5195 10.2634 88.3661 10.7772 88.3661 11.3734C88.3661 11.9315 88.4748 12.3946 88.6916 12.7624C88.9084 13.1176 89.1898 13.3967 89.5341 13.5996C89.879 13.8026 90.2432 13.9612 90.6261 14.0753C91.009 14.1895 91.3732 14.2973 91.718 14.3988C92.0623 14.4876 92.3437 14.5954 92.5606 14.7223C92.7907 14.8364 92.9054 15.0077 92.9054 15.236C92.9054 15.4136 92.8094 15.5531 92.6179 15.6546C92.4392 15.7561 92.1776 15.8068 91.8328 15.8068C91.3345 15.8068 90.8749 15.718 90.4539 15.5404C90.0324 15.3502 89.6682 15.0901 89.362 14.7603L87.6957 16.4347C88.0152 16.7772 88.3981 17.0817 88.845 17.348C89.3046 17.6017 89.7962 17.7983 90.3199 17.9379Z" fill="black"/>
<path d="M101.084 18.1282C100.228 18.1282 99.4687 17.9569 98.8049 17.6144C98.1532 17.2592 97.6429 16.7772 97.2727 16.1683C96.9018 15.5468 96.717 14.8364 96.717 14.0372V8.67151H99.6474V13.9992C99.6474 14.3163 99.6982 14.5891 99.8008 14.8174C99.9156 15.0457 100.082 15.2233 100.298 15.3502C100.516 15.477 100.777 15.5404 101.084 15.5404C101.518 15.5404 101.863 15.4072 102.118 15.1408C102.374 14.8618 102.501 14.4812 102.501 13.9992V8.67151H105.432V14.0182C105.432 14.8301 105.247 15.5468 104.876 16.1683C104.506 16.7772 103.995 17.2592 103.344 17.6144C102.693 17.9569 101.939 18.1282 101.084 18.1282Z" fill="black"/>
<path d="M109.819 8.67149H106.888V17.9189H109.819V12.515C109.819 12.1979 109.883 11.9315 110.01 11.7159C110.151 11.5003 110.336 11.3353 110.566 11.2212C110.796 11.0943 111.057 11.0309 111.351 11.0309C111.773 11.0309 112.123 11.1641 112.404 11.4305C112.698 11.6842 112.845 12.0457 112.845 12.515V17.9189H115.776V12.515C115.776 12.1979 115.84 11.9315 115.967 11.7159C116.108 11.5003 116.293 11.3353 116.523 11.2212C116.752 11.0943 117.014 11.0309 117.308 11.0309C117.729 11.0309 118.08 11.1641 118.361 11.4305C118.655 11.6842 118.801 12.0457 118.801 12.515V17.9189H121.732V12.1916C121.732 11.4178 121.566 10.7582 121.234 10.2127C120.915 9.65453 120.474 9.22961 119.913 8.93789C119.364 8.63339 118.731 8.48117 118.016 8.48117C117.289 8.48117 116.631 8.63975 116.044 8.95691C115.662 9.15893 115.329 9.41969 115.043 9.73913C114.777 9.40499 114.453 9.13157 114.071 8.91881C113.56 8.62709 112.979 8.48117 112.328 8.48117C111.638 8.48117 111.019 8.62709 110.47 8.91881C110.231 9.04019 110.014 9.18557 109.819 9.35495V8.67149Z" fill="black"/>
</g>
<defs>
<clipPath id="clip0_194_8">
<rect width="122" height="24" fill="white"/>
</clipPath>
</defs>
</svg>
